/* XPM */
static char *_502879036191[] = {
/* columns rows colors chars-per-pixel */
"55 28 217 2 ",
"   c #1E1E1E",
".  c #251F1F",
"X  c #232422",
"o  c #2A2C2B",
"O  c #272828",
"+  c #2E302F",
"@  c #2E3538",
"#  c #343535",
"$  c #353837",
"%  c #353A39",
"&  c #3B3C3B",
"*  c #3A3637",
"=  c #34332E",
"-  c #440103",
";  c #4D0101",
":  c #4B0905",
">  c #4D050B",
",  c #4C0B0B",
"<  c #470509",
"1  c #540201",
"2  c #5A0101",
"3  c #540806",
"4  c #53040A",
"5  c #5A050A",
"6  c #530C0E",
"7  c #5B0C0A",
"8  c #53110D",
"9  c #4F0712",
"0  c #550D12",
"q  c #5B0B11",
"w  c #510D1C",
"e  c #4A1319",
"r  c #4B1815",
"t  c #541315",
"y  c #5C1313",
"u  c #56131A",
"i  c #5A1619",
"p  c #521A1C",
"a  c #5A1A1B",
"s  c #571A13",
"d  c #4B160E",
"f  c #610103",
"g  c #61030B",
"h  c #670914",
"j  c #651C1E",
"k  c #671217",
"l  c #7D0A19",
"z  c #56251F",
"x  c #4A221A",
"c  c #61201E",
"v  c #4D1D22",
"b  c #4E1F29",
"n  c #581624",
"m  c #631D22",
"M  c #492728",
"N  c #542423",
"B  c #5C2323",
"V  c #562A29",
"C  c #46362E",
"Z  c #58312D",
"A  c #4D3434",
"S  c #4E393A",
"D  c #483C37",
"F  c #533435",
"G  c #563738",
"H  c #5A3D3C",
"J  c #533B3A",
"K  c #622424",
"L  c #662D2B",
"P  c #60302C",
"I  c #662F32",
"U  c #623C39",
"Y  c #68393D",
"T  c #3C403F",
"R  c #49423D",
"E  c #55423F",
"W  c #5A413F",
"Q  c #524A3F",
"!  c #7C433C",
"~  c #2F3E45",
"^  c #413C40",
"/  c #5E3F44",
"(  c #653941",
")  c #2F4D4F",
"_  c #3F4245",
"`  c #3F494D",
"'  c #3F4847",
"]  c #3D5241",
"[  c #354F50",
"{  c #434544",
"}  c #434C4B",
"|  c #4B4C4C",
" . c #4D4843",
".. c #534543",
"X. c #5A4441",
"o. c #514A42",
"O. c #594B49",
"+. c #44504E",
"@. c #4B524E",
"#. c #47554B",
"$. c #494D51",
"%. c #455252",
"&. c #4B5253",
"*. c #4A5D53",
"=. c #4A5B5B",
"-. c #525553",
";. c #545956",
":. c #595956",
">. c #565B5D",
",. c #5B5B5B",
"<. c #585556",
"1. c #64454A",
"2. c #664846",
"3. c #655755",
"4. c #755654",
"5. c #704849",
"6. c #64645F",
"7. c #6A615D",
"8. c #585D61",
"9. c #4D6360",
"0. c #5D6261",
"q. c #586865",
"w. c #656465",
"e. c #6A6B6A",
"r. c #6A6B69",
"t. c #726D6E",
"y. c #786360",
"u. c #68746A",
"i. c #75716E",
"p. c #736F70",
"a. c #6D7471",
"s. c #6E7973",
"d. c #737272",
"f. c #777A79",
"g. c #7C7C7C",
"h. c #7A7372",
"j. c #884947",
"k. c #855F5D",
"l. c #875C5B",
"z. c #9A6B6B",
"x. c #8F6F70",
"c. c #867978",
"v. c #997776",
"b. c #856568",
"n. c #A8777A",
"m. c #A4736E",
"M. c #84837F",
"N. c #9E817D",
"B. c #7B7D81",
"V. c #A67F82",
"C. c #7D8683",
"Z. c #838383",
"A. c #8A8B86",
"S. c #878D8C",
"D. c #8B8D89",
"F. c #888883",
"G. c #908E8F",
"H. c #85938D",
"J. c #89928E",
"K. c #8B9394",
"L. c #959493",
"P. c #9B9A9B",
"I. c #989395",
"U. c #9A9087",
"Y. c #AC8284",
"T. c #A68687",
"R. c #B88487",
"E. c #BE969B",
"W. c #BF989B",
"Q. c #B79697",
"!. c #A99B9B",
"~. c #98A99F",
"^. c #909EA1",
"/. c #9DA8AA",
"(. c #AAABAB",
"). c #A5A7A6",
"_. c #B5AAA9",
"`. c #A6B2AD",
"'. c #ADAEB0",
"]. c #ADB6B5",
"[. c #ABB9B8",
"{. c #B2B6B5",
"}. c #BAB9BB",
"|. c #C3989E",
" X c #CEAFAD",
".X c #CFBBBC",
"XX c #C9B4AF",
"oX c #ACC0BE",
"OX c #BFC6CC",
"+X c #CBCBCA",
"@X c #C0D3D1",
"#X c #D5D8D7",
"$X c #DBDBD8",
"%X c #F0DACF",
"&X c #E9D0D1",
"*X c #DDDEE0",
"=X c #ECDDE0",
"-X c #DDE9E4",
";X c #D9E7E5",
":X c #D2EFEE",
">X c #E4EDEA",
",X c #EBECEE",
"<X c #EBE6E6",
"1X c #F2EBE6",
"2X c #F2EAE9",
"3X c #E7F2ED",
"4X c #ECF2ED",
"5X c #F6F1ED",
"6X c #E4EFF3",
"7X c #EDEEF1",
"8X c #F0EDF4",
"9X c #FFEEF2",
"0X c #ECF4F2",
"qX c #E5F0F4",
"wX c #FDFAF6",
"eX c #F6FFFF",
"rX c #F7F7F8",
/* pixels */
"2 2 2 1 2 g 1 - 5 2 1 5 2 1 2 2 2 2 2 2 2 2 2 2 2 2 2 f 2 1 1 1 2 2 2 f 2 2 2 2 1 2 1 2 2 2 2 1 2 1 1 f 5 1 2 ",
"f 2 1 1 f 2 1 j a i 4 1 2 1 1 1 1 1 1 2 1 1 1 1 ; 1 2 2 2 2 2 2 5 1 2 2 2 2 2 2 2 2 2 2 2 f 2 2 2 1 2 f 1 1 2 ",
"f 2 1 2 2 2 7 j.v.k.K > 2 1 1 - ; ; 1 ; > 1 1 4 1 1 5 2 5 2 2 1 4 1 4 1 4 1 4 4 2 2 2 f 2 2 1 1 1 ; 1 f 1 2 2 ",
"2 2 1 1 2 1 y j.U.v.2.B m j j j m m m m m m i t y 6 1 ; 1 1 1 ; 1 1 ; 1 4 1 1 1 1 1 2 1 1 1 ; y j i 5 2 1 5 1 ",
"2 1 1 1 2 2 7 K ( k.U.Q._.E.E.|.W.E.W.W.|.Q.n.v.4.W B : - - ; 1 1 1 1 1 ; 1 1 1 - 1 ; ; 1 - 6 j.R.z.c - ; 2 2 ",
"f 1 1 1 f 5 ; - < j. X9XwX0X0XrX5X5X5XrXwX5X$X+X~.A.7.G p 0 q g 7 7 7 7 7 7 7 7 0 6 6 q t < L R.9X&Xl.r : 1 q ",
"2 2 1 1 2 1 ; s ( v..X2X0X;X;X;X-X;X-X-X3XqX3X>X;X@X{.!.T.Y.Y.R.Y.Y.Y.Y.Y.Y.Y.Y.Y.n.Y.Y.Y.T.Q.&XeXwXXXm.! h 4 ",
"1 2 3 1 2 1 k j.K.).(.(._.(.(.(.(.(.(.'.}.+X;X,XrX8X8X8X2X1X1X1X,X,X,X,X,X,X,X,X1X1X9X1X2X4X-X>X:XeXwX%Xm.k 9 ",
"f f f 1 6 N O.F.[.oX/.K.I.^.I.I.P.I.S.H.P.).}.$X=X<X>X>X,X,X2X7X6X6X6XqXqXqXqXqX>X,X,XqX,X,X,X<X$X<XrX#Xn.l 5 ",
"1 1 1 1 s U y.I._.(.L.B.B.C.Z.M.V.C.B.V.g.S.P.(.}.{.{.].{.{.].[.].{.].].].].].{.].].].[.].].].(.].}.OX`.k.k 4 ",
"2 1 1 1 y P 5.b.z.x.c.p.e.0.8.3.9.w.e.d.d.g.Z.S.H.H.J.J.S.S.S.S.D.D.A.S.A.D.D.D.H.J.H.J.J.J.K.H.H.K.^.C.2.q - ",
"f 2 2 1 1 q u n u I 4.r.>.} & D ^ $.:.w.f.C.f.u.u.u.i.h.h.t.t.p.p.p.p.p.t.d.d.t.s.s.a.a.a.a.a.d.a.f.B.e.U q < ",
"f 2 2 2 2 5 4 > - n 1.3.+.% o O o # { ;.u.d.e.0.O./ / ( <.:.;.:.>.>.>.>.8.8.>.&.O.X...X.H X.H H Q 1.1./ N 5 4 ",
"1 1 2 2 1 3 : s V G ..$.} % O .   o % { -.0.0.>.( n w b E #.*.@.%.&.&.$.$.=.$.` a u u t u t u t t u u 0 7 2 1 ",
"3 1 2 2 2 1 : c -.:.| _ _ & o X X O # ~ | -.>.,.G n e M R #.{ S A S A A S G D C 2 5 5 1 2 5 2 2 1 5 4 4 1 2 2 ",
"1 1 f f f 1 3 L 9.q.%.% % & # = # + # & } -.-.=.] D D E  .{ M u t p e d t p t , 2 1 1 2 2 2 2 1 1 f 2 2 1 1 2 ",
"1 2 2 2 3 : r H w.,.{ # # & & & C = D ` *.*.@.H S R o.o.E V 8 4 2 2 2 2 2 2 2 2 2 2 2 2 1 2 2 2 2 2 1 2 2 2 2 ",
"1 2 f 2 7 x F O.,.-.{ * # # * # & * ^ $.q.6.W N v p r M r d 4 1 2 2 2 2 2 2 2 2 2 2 2 2 2 2 2 2 2 2 2 2 2 2 1 ",
"2 2 f 5 u F O.=.| { & # # # $ # ~ ~ | <.7.4.P , 5 4 4 4 1 1 2 2 2 2 2 2 2 2 2 2 2 2 2 2 2 2 2 2 2 1 2 2 2 2 2 ",
"2 2 2 4 e J &.[ & # o o o # $ $ % $.,.3.W P y 2 2 f g 2 2 f 2 f 2 2 2 2 2 2 2 2 1 2 2 2 2 2 1 2 2 2 2 2 1 2 2 ",
"f 2 2 4 e S %.[ & o X X o $ % $ ~ >.w.1.N 3 2 f 2 2 2 2 2 f 2 2 2 2 2 2 2 2 2 2 2 2 1 2 2 2 2 2 2 2 1 2 1 2 2 ",
"2 2 2 5 n G &.[ { # O O o # % % ` >.6.2.a 2 2 f 1 1 2 2 2 2 2 2 2 2 2 2 2 2 2 2 2 2 2 2 2 2 2 1 2 2 2 2 2 2 2 ",
"1 2 2 4 s Z Q @.| _ % @ $ $ & { $.<...Z y 2 2 5 3 3 1 2 1 2 5 2 2 2 2 2 2 2 2 2 2 2 2 2 2 2 2 2 2 2 2 2 2 2 2 ",
"4 5 2 1 y p C Q +.| } { T & ' | | ^ C r 7 2 2 > 2 f 2 1 1 2 1 5 2 2 2 2 2 2 2 2 2 1 2 2 1 2 2 2 2 2 1 2 2 2 2 ",
"2 2 1 2 f 2 8 z } %.+.} +.} } =...V 0 5 f 2 2 2 2 2 2 2 2 2 1 2 2 2 2 2 2 2 2 2 2 1 2 2 1 2 2 2 2 2 2 2 2 2 2 ",
"2 2 1 2 2 2 3 z A F F A F F A G M t 4 2 2 1 2 2 2 2 2 1 2 2 2 2 2 2 2 1 2 2 2 1 2 2 2 2 2 2 2 2 2 1 2 2 1 2 2 ",
"2 2 1 1 2 f 2 3 6 t 0 6 t 0 6 y t 3 2 2 1 1 2 2 2 2 2 2 2 2 2 2 2 1 2 2 2 2 2 2 2 2 2 2 2 2 2 1 2 2 2 2 2 2 2 ",
"2 2 1 2 f f 2 2 2 2 2 2 2 2 2 2 1 2 f 2 3 1 2 2 2 2 2 2 2 2 1 2 2 2 2 1 1 2 2 2 2 2 1 2 2 2 2 2 2 2 2 1 2 1 2 "
};
